<?xml version="1.0" encoding="UTF-8" standalone="no"?>
<!DOCTYPE svg PUBLIC "-//W3C//DTD SVG 1.1//EN" "http://www.w3.org/Graphics/SVG/1.1/DTD/svg11.dtd">
<svg width="100%" height="100%" viewBox="0 0 195 187" version="1.1" xmlns="http://www.w3.org/2000/svg" xmlns:xlink="http://www.w3.org/1999/xlink" xml:space="preserve" style="fill-rule:evenodd;clip-rule:evenodd;stroke-linejoin:round;stroke-miterlimit:1.41421;">
    <g transform="matrix(1,0,0,1,-1631,-2420)">
        <g id="Logo-4">
            <g transform="matrix(1,0,0,1,0,-321.053)">
                <path d="M1742.1,2849.75L1741.96,2849.75L1741.96,2778.57C1741.96,2768.36 1745.65,2759.61 1753.03,2752.31C1760.39,2745.02 1769.24,2741.37 1779.59,2741.36L1779.59,2759.07C1774.11,2759.08 1769.42,2761.04 1765.53,2764.93C1761.62,2768.84 1759.67,2773.51 1759.67,2778.93L1759.67,2798.91L1779.59,2798.91L1779.59,2816.62L1759.67,2816.62L1759.67,2816.62L1759.8,2816.62L1759.8,2852.04L1780.14,2852.04C1790.35,2852.04 1799.11,2855.75 1806.41,2863.16C1813.71,2870.58 1817.36,2879.4 1817.36,2889.61C1817.36,2900.06 1813.71,2908.95 1806.41,2916.29C1799.11,2923.63 1790.24,2927.3 1779.79,2927.3C1769.41,2927.3 1760.54,2923.65 1753.16,2916.35C1745.78,2909.05 1742.1,2900.3 1742.1,2890.09L1742.1,2849.75ZM1779.79,2869.75L1759.8,2869.75L1759.8,2889.73C1759.8,2895.15 1761.76,2899.82 1765.67,2903.73C1769.58,2907.64 1774.28,2909.59 1779.79,2909.59C1785.29,2909.59 1789.98,2907.64 1793.84,2903.73C1797.71,2899.82 1799.65,2895.11 1799.65,2889.61C1799.65,2884.18 1797.69,2879.52 1793.78,2875.61C1789.88,2871.7 1785.21,2869.75 1779.79,2869.75Z"/>
            </g>
            <g transform="matrix(1,0,0,1,0,-321.053)">
                <path d="M1806.01,2798.91L1825.94,2798.91L1825.94,2816.62L1806.01,2816.62L1806.01,2844.88L1788.31,2844.88L1788.31,2742.25C1794.98,2743.7 1800.88,2746.94 1806.01,2751.98L1806.01,2798.91Z"/>
            </g>
            <g transform="matrix(4.90095,0,0,4.24069,1575.3,2421.64)">
                <path d="M28.613,24.097L28.613,13.257L32.227,13.257L32.227,24.097L28.613,24.097Z" style="fill-rule:nonzero;"/>
            </g>
            <g transform="matrix(1,0,0,1,1320.65,863.032)">
                <circle cx="403.735" cy="1588.26" r="8.854"/>
            </g>
            <g transform="matrix(1,0,0,1,554.411,-313.136)">
                <path d="M1152.27,2861.83L1152.27,2882.17C1152.27,2892.38 1148.58,2901.14 1141.2,2908.43C1133.82,2915.73 1124.95,2919.38 1114.58,2919.38C1104.21,2919.38 1095.36,2915.71 1088.02,2908.37C1080.68,2901.03 1077.01,2892.14 1077.01,2881.69C1077.01,2871.48 1080.68,2862.67 1088.02,2855.25C1095.36,2847.83 1104.09,2844.12 1114.22,2844.12L1134.56,2844.12L1134.68,2836.83L1114.34,2836.83C1104.21,2836.83 1095.48,2833.12 1088.14,2825.7C1080.8,2818.28 1077.13,2809.43 1077.13,2799.14C1077.13,2794.28 1076.98,2776.61 1077.01,2771.01C1077.07,2759.34 1083.76,2748.35 1087.66,2744.45C1095,2737.11 1103.85,2733.44 1114.22,2733.44C1124.59,2733.44 1133.46,2737.09 1140.84,2744.39C1148.22,2751.69 1151.91,2760.44 1151.91,2770.65L1151.92,2773.29L1134.22,2773.29L1134.2,2771.01C1134.2,2765.51 1132.25,2760.82 1128.34,2756.95C1124.43,2753.09 1119.73,2751.15 1114.22,2751.15C1108.8,2751.15 1104.13,2753.09 1100.22,2756.95C1098.38,2758.77 1095.28,2765.35 1094.72,2771.01C1094.38,2774.38 1094.84,2796.22 1094.84,2799.14C1094.84,2804.64 1096.79,2809.35 1100.7,2813.26C1104.61,2817.17 1109.32,2819.12 1114.82,2819.12L1134.68,2819.12L1134.57,2808.28L1114.35,2808.28L1114.35,2790.99L1151.98,2790.99L1151.98,2801.33L1152.27,2844.12L1215.4,2844.12L1197.69,2861.83L1152.27,2861.83ZM1134.56,2861.83L1114.7,2861.83C1109.19,2861.83 1104.49,2863.78 1100.58,2867.69C1096.67,2871.6 1094.72,2876.27 1094.72,2881.69C1094.72,2887.2 1096.67,2891.9 1100.58,2895.81C1104.49,2899.72 1109.2,2901.67 1114.7,2901.67C1120.12,2901.67 1124.79,2899.72 1128.7,2895.81C1132.61,2891.9 1134.56,2887.24 1134.56,2881.81L1134.56,2861.83Z"/>
            </g>
        </g>
    </g>
</svg>
